<svg width="40" height="40" viewBox="0 0 40 40" fill="none" xmlns="http://www.w3.org/2000/svg">
<g clip-path="url(#clip0_56_1692)">
<path d="M19.9998 39.9921C31.0433 39.9921 39.9958 31.0395 39.9958 19.996C39.9958 8.95253 31.0433 0 19.9998 0C8.95625 0 0.00372314 8.95253 0.00372314 19.996C0.00372314 31.0395 8.95625 39.9921 19.9998 39.9921Z" fill="#1F222E"/>
<path d="M24.3714 24.4387C24.6248 24.9772 24.7911 25.5474 24.9495 26.1175C25.1396 26.7907 25.3376 27.4638 25.5276 28.1369C25.8523 29.2852 26.177 30.5365 25.7256 31.6372C25.4643 32.2708 24.9812 32.7776 24.4744 33.2448C23.92 33.7517 23.334 34.2268 22.7163 34.6624C22.1778 35.0425 21.6076 35.3909 20.9741 35.581C20.293 35.779 19.5724 35.779 18.8596 35.7632C18.4003 35.7552 17.9252 35.7394 17.5134 35.5335C17.1729 35.3672 16.9036 35.0742 16.6898 34.7574C15.9058 33.5854 15.882 32.0807 15.882 30.6711C15.8899 28.5091 15.8979 26.3472 15.8979 24.1773C15.8979 23.7814 15.8979 23.3775 16.0008 22.9894C16.3176 21.8095 17.5292 21.073 18.7329 20.8592C19.2081 20.7721 19.707 20.7483 20.1822 20.8513C20.6256 20.9463 21.0374 21.1601 21.4334 21.3898C22.6609 22.1262 23.7616 23.1478 24.3714 24.4387Z" fill="#E6E9EE"/>
<path d="M20 14.0884C18.3528 14.0884 17.0224 17.3115 17.0224 19.4022C17.0224 20.6217 17.4817 21.7146 18.1944 22.4036C18.2816 22.3956 18.4162 22.3798 18.4479 22.3798C18.5825 22.3798 18.733 22.3956 18.8597 22.4352C18.9864 22.4748 19.121 22.5224 19.2398 22.5857C19.2635 22.6015 19.3427 22.6491 19.3982 22.6887C19.4219 22.6966 19.4457 22.7124 19.4774 22.7283C19.5645 22.7678 19.6357 22.8154 19.7149 22.8708C19.7783 22.9183 19.8337 22.9579 19.8971 22.9975C19.9367 23.0213 19.9684 23.045 20 23.0688H20.0079C20.0871 22.9975 20.2059 22.9342 20.293 22.8787C20.3485 22.847 20.396 22.8154 20.4593 22.7916C20.5385 22.7599 20.5861 22.7283 20.6256 22.7124C20.6573 22.6491 21.0137 22.5303 21.0374 22.5224C21.2513 22.4511 21.4492 22.4669 21.671 22.4986C21.6789 22.4986 21.6868 22.4986 21.6947 22.5065C22.4787 21.8255 22.9935 20.6851 22.9935 19.3943C22.9777 17.3194 21.6472 14.0884 20 14.0884Z" fill="#F9B54C"/>
<path d="M11.273 37.3074C11.3126 37.5371 11.3364 37.7747 11.3601 38.036C9.70503 37.2441 8.17662 36.2304 6.81451 35.0267C7.57476 26.2126 9.09525 23.7339 9.09525 23.7339C9.09525 23.7339 9.09525 23.7339 9.10317 23.7497L12.0887 28.5805L10.8771 36.0087C10.8771 36.0087 10.8771 36.0087 10.8771 36.0166C11.0592 36.3413 11.1859 36.7848 11.273 37.3074Z" fill="#324A5E"/>
<path d="M20.784 39.9762C20.5227 39.9841 20.2613 39.992 20 39.992C19.7387 39.992 19.4773 39.9841 19.216 39.9762C16.4443 39.8732 13.823 39.2001 11.4552 38.0756C11.3997 37.7905 11.3364 37.5371 11.273 37.3074C11.075 36.5551 10.9008 36.072 10.8771 36.0087V36.0007C11.4552 29.7129 9.22986 24.0506 9.11107 23.7418C9.11107 23.7339 9.10315 23.7259 9.10315 23.7259C9.72877 22.9974 12.6589 22.2846 14.5199 21.8887C15.4385 21.6986 16.1037 21.5798 16.1037 21.5798L16.0562 22.5935L16.0879 22.7598L16.7135 26.7352C16.7135 26.7352 18.2894 30.489 19.5011 33.6091C19.5011 33.6171 19.509 33.625 19.509 33.625C19.6832 34.0922 19.8575 34.5436 20.0158 34.9712C20.0317 35.0108 20.0396 35.0504 20.0554 35.09C20.1109 35.2563 20.1742 35.4226 20.2297 35.581C20.2455 35.6285 20.2613 35.6681 20.2772 35.7156C20.3089 35.8107 20.3484 35.9057 20.3722 36.0007C20.5148 36.4046 20.6098 36.959 20.6811 37.6163C20.7286 38.0439 20.7523 38.527 20.7761 39.0338C20.7761 39.3427 20.784 39.6515 20.784 39.9762Z" fill="#2B3B4E"/>
<path d="M16.7611 19.9248C16.7611 19.9248 18.8517 33.3954 20.3643 36.0087C20.3643 36.0087 15.985 33.4588 14.2665 25.2069L15.5573 24.7635L13.6805 23.2034C13.6805 23.2034 14.6625 21.0889 16.7611 19.9248Z" fill="#324A5E"/>
<path d="M20 23.0686C20 23.0686 17.846 21.5957 16.864 24.3516C16.864 24.3516 16.3809 19.6713 17.0778 18.8081C17.0778 18.816 17.7747 21.1997 20 23.0686Z" fill="white"/>
<path d="M29.1309 36.0088L27.9193 28.5726L30.9048 23.7419C30.9048 23.734 30.9127 23.7261 30.9127 23.7261C30.9127 23.7261 32.4332 26.2048 33.1935 35.0189C31.8313 36.2147 30.3029 37.2284 28.6478 38.0282C28.6716 37.7748 28.6953 37.5293 28.7349 37.2996C28.8141 36.7849 28.9408 36.3414 29.1309 36.0088Z" fill="#2B3B4E"/>
<path d="M30.8969 23.7499C30.7781 24.0587 28.5528 29.721 29.1309 36.0088C29.1309 36.0088 29.1309 36.0088 29.1309 36.0167C29.1071 36.0801 28.925 36.5553 28.7349 37.3155C28.6795 37.5452 28.6161 37.8065 28.5528 38.0837C26.1849 39.2082 23.5637 39.8734 20.7919 39.9843C20.5306 39.9922 20.2693 40.0001 20.0079 40.0001C19.7466 40.0001 19.4853 39.9922 19.2239 39.9843C19.2398 38.2975 19.3586 36.8403 19.6437 36.0167C19.6674 35.9376 19.6991 35.8584 19.7308 35.7792C19.7466 35.7237 19.7704 35.6604 19.7941 35.6049C19.8496 35.4466 19.905 35.2882 19.9683 35.114C19.9842 35.0744 20 35.0348 20.0159 34.9952C20.1742 34.5675 20.3485 34.1082 20.5227 33.641C20.5227 33.641 20.5227 33.641 20.5227 33.6331C21.7264 30.505 23.3103 26.7592 23.3103 26.7592L23.825 23.5123L23.9676 22.6174L23.92 21.6038C23.92 21.6038 24.5853 21.7226 25.5118 21.9126C27.3807 22.3086 30.295 23.0213 30.9285 23.7499C30.9048 23.734 30.9048 23.742 30.8969 23.7499Z" fill="#324A5E"/>
<path d="M23.239 19.9248C23.239 19.9248 21.1483 33.3954 19.6357 36.0087C19.6357 36.0087 24.0151 33.4588 25.7335 25.2069L24.4427 24.7635L26.3196 23.2034C26.3196 23.2034 25.3376 21.0889 23.239 19.9248Z" fill="#2B3B4E"/>
<path d="M20 23.0686C20 23.0686 22.154 21.5957 23.136 24.3516C23.136 24.3516 23.6191 19.6713 22.9222 18.8081C22.9222 18.816 22.2253 21.1997 20 23.0686Z" fill="white"/>
<path d="M21.0295 39.0893C21.4581 39.0893 21.8056 38.7418 21.8056 38.3132C21.8056 37.8846 21.4581 37.5371 21.0295 37.5371C20.6009 37.5371 20.2534 37.8846 20.2534 38.3132C20.2534 38.7418 20.6009 39.0893 21.0295 39.0893Z" fill="#2B3B4E"/>
<path d="M25.8998 12.9637C25.4959 13.9615 24.506 15.0148 23.8883 14.8326C23.2706 14.6505 23.2627 13.3121 23.6745 12.3143C24.0784 11.3165 24.7515 11.0473 25.3613 11.2215C25.979 11.4036 26.3116 11.9659 25.8998 12.9637Z" fill="#F9B54C"/>
<path d="M14.1002 12.9637C14.5041 13.9615 15.494 15.0148 16.1117 14.8326C16.7294 14.6505 16.7373 13.3121 16.3255 12.3143C15.9216 11.3165 15.2485 11.0473 14.6387 11.2215C14.021 11.4036 13.6884 11.9659 14.1002 12.9637Z" fill="#F9B54C"/>
<path d="M20 19.2279C22.6504 19.2279 24.799 16.4446 24.799 13.0113C24.799 9.57794 22.6504 6.79468 20 6.79468C17.3495 6.79468 15.2009 9.57794 15.2009 13.0113C15.2009 16.4446 17.3495 19.2279 20 19.2279Z" fill="#FFD05B"/>
<path d="M22.4708 11.1186L21.5443 7.38073C21.5443 7.38073 22.7638 5.92359 23.0964 5.97111C23.4211 6.01862 25.2742 7.98259 25.2742 7.98259V10.7702V11.9184L24.7674 12.94L22.7717 12.0689L22.4708 11.1186Z" fill="#FFD05B"/>
<path d="M18.8675 7.7926L15.8582 7.22241L14.8446 8.22815L14.6703 10.4376L15.2485 12.8688L19.1051 11.8235L18.8675 7.7926Z" fill="#FFD05B"/>
<path d="M19.2239 4.18145C19.2239 4.18145 20.7602 1.61562 23.6349 4.18145C23.6349 4.18145 22.843 4.06266 22.4629 4.18145C22.4629 4.18145 27.254 4.50614 26.0107 10.0179C26.0107 10.0179 26.0582 11.5305 24.7674 12.948C24.7674 12.948 26.2562 6.62057 22.3441 8.1569C22.3441 8.1569 19.802 9.59028 17.9806 8.09354C17.9806 8.09354 14.4803 7.07988 15.2484 12.8609C15.2484 12.8609 11.178 5.54355 15.6761 4.617C15.6761 4.617 16.8481 2.07493 21.1403 2.74015C21.1403 2.74015 19.6357 2.74015 19.2239 4.18145Z" fill="#324A5E"/>
</g>
<defs>
<clipPath id="clip0_56_1692">
<rect width="40" height="40" fill="white"/>
</clipPath>
</defs>
</svg>
