<svg width="48" height="48" viewBox="0 0 48 48" fill="none" xmlns="http://www.w3.org/2000/svg">
<g clip-path="url(#clip0_424_534)">
<path d="M45.3847 20.787C43.9011 20.499 42.5636 21.2158 41.9025 22.3722C41.7126 22.7049 41.3559 22.9057 40.9719 22.9057H40.169C39.63 22.9057 39.1948 22.4955 39.1227 21.9609C38.9471 20.6463 38.6046 19.3852 38.1158 18.1982C37.9107 17.6986 38.082 17.1258 38.55 16.8564L38.8489 16.684C39.1489 16.5106 39.5155 16.4833 39.8275 16.6338C40.8301 17.1149 42.1032 16.9764 43.0098 16.0382C43.6436 15.3814 43.8945 14.3996 43.6589 13.5181C43.169 11.6875 41.1606 10.9413 39.6442 11.8173C38.838 12.2832 38.3613 13.0992 38.2925 13.9621C38.2642 14.3112 38.0613 14.62 37.7591 14.7956L37.4711 14.9614C37.0041 15.2309 36.4227 15.0945 36.0932 14.668C35.2946 13.6337 34.3662 12.7054 33.332 11.9068C32.9055 11.5773 32.7691 10.9959 33.0386 10.5289L33.2044 10.242C33.3779 9.942 33.6811 9.73473 34.027 9.70963C35.1255 9.62672 36.1488 8.88379 36.4761 7.63903C36.7118 6.74337 36.4412 5.74843 35.7856 5.09386C34.4459 3.75528 32.3349 4.11311 31.4589 5.62952C30.9931 6.43681 30.9887 7.38157 31.3607 8.16377C31.5113 8.47905 31.4894 8.84888 31.3149 9.15216L31.1425 9.45108C30.8731 9.91909 30.2992 10.0904 29.8007 9.88527C28.6137 9.39653 27.3537 9.05398 26.038 8.87834C25.5034 8.80743 25.0933 8.37214 25.0933 7.83322V7.13938C25.0933 6.64518 25.294 6.29063 25.6267 6.09971C26.7711 5.44515 27.4857 4.12838 27.2195 2.66216C26.9839 1.35957 25.9191 0.292634 24.6165 0.0558998C22.5383 -0.321566 20.7284 1.26357 20.7284 3.27308C20.7284 4.48076 21.3862 5.52697 22.3615 6.09098C22.6986 6.28626 22.9103 6.64082 22.9103 7.03138V7.83322C22.9103 8.37323 22.5001 8.80743 21.9655 8.87943C20.6509 9.05507 19.3898 9.39762 18.204 9.88637C17.7043 10.0915 17.1316 9.92019 16.8621 9.45217L16.6897 9.15435C16.5163 8.85434 16.489 8.48778 16.6396 8.17577C17.1163 7.18302 16.9854 5.92407 16.0712 5.01968C15.4133 4.36839 14.4162 4.10438 13.5216 4.34439C11.6921 4.83531 10.947 6.84264 11.822 8.35905C12.2878 9.16635 13.1038 9.64309 13.9668 9.71182C14.3159 9.73909 14.6246 9.9431 14.8002 10.2453L14.9661 10.5322C15.2355 10.9991 15.0991 11.5806 14.6726 11.9101C13.6384 12.7086 12.71 13.637 11.9114 14.6712C11.582 15.0978 11.0005 15.2342 10.5336 14.9647L10.2466 14.7989C9.94663 14.6254 9.73936 14.3221 9.71317 13.9763C9.63026 12.8777 8.88624 11.8533 7.64257 11.5271C6.7469 11.2926 5.75197 11.5621 5.0974 12.2177C3.75882 13.5574 4.11665 15.6694 5.63196 16.5444C6.43926 17.0102 7.38401 17.0146 8.16622 16.6426C8.48259 16.492 8.85133 16.5138 9.15461 16.6884L9.45244 16.8608C9.92045 17.1302 10.0917 17.704 9.88663 18.2026C9.39789 19.3896 9.05534 20.6496 8.87969 21.9642C8.80878 22.4987 8.3735 22.9089 7.83457 22.9089H7.14073C6.64654 22.9089 6.29198 22.7082 6.10107 22.3755C5.43996 21.2191 4.10247 20.5023 2.61879 20.7903C1.33475 21.0391 0.290719 22.0973 0.0561664 23.3846C-0.32239 25.4628 1.26384 27.2727 3.27226 27.2727C4.47993 27.2727 5.52614 26.6149 6.09016 25.6396C6.28544 25.3025 6.63999 25.0908 7.03055 25.0908H8.78151C8.89933 26.7479 9.28007 28.3298 9.88445 29.7971C10.0895 30.2968 9.91827 30.8695 9.45026 31.139L9.15243 31.3114C8.85242 31.4848 8.48586 31.5121 8.17386 31.3615C7.1811 30.8837 5.92215 31.0157 5.01776 31.9299C4.36647 32.5878 4.10356 33.5849 4.34247 34.4784C4.8334 36.3079 6.84073 37.0541 8.35713 36.1791C9.16443 35.7133 9.64008 34.8973 9.7099 34.0343C9.73717 33.6852 9.94118 33.3765 10.2434 33.2009L10.5303 33.035C10.9972 32.7656 11.5787 32.9019 11.9081 33.3285C12.7067 34.3627 13.6351 35.2911 14.6693 36.0897C15.0959 36.4191 15.2322 37.0006 14.9628 37.4675L14.797 37.7544C14.6235 38.0545 14.3202 38.2617 13.9744 38.2879C12.8758 38.3708 11.8514 39.1148 11.5252 40.3585C11.2907 41.2542 11.5601 42.2491 12.2147 42.9026C13.5544 44.2423 15.6664 43.8844 16.5414 42.368C17.0072 41.5607 17.0116 40.616 16.6396 39.8338C16.489 39.5174 16.5108 39.1487 16.6854 38.8454L16.8577 38.5476C17.1272 38.0795 17.701 37.9083 18.1996 38.1134C19.3865 38.6021 20.6466 38.9447 21.9623 39.1203C22.4968 39.1912 22.907 39.6265 22.907 40.1654V40.8593C22.907 41.3535 22.7063 41.708 22.3735 41.8989C21.2171 42.56 20.5004 43.8975 20.7884 45.3812C21.0371 46.6653 22.0953 47.7093 23.3827 47.9438C25.4609 48.3224 27.2708 46.7362 27.2708 44.7277C27.2708 43.5201 26.6129 42.4739 25.6376 41.9098C25.3005 41.7146 25.0889 41.36 25.0889 40.9694V40.1676C25.0889 39.6287 25.4991 39.1934 26.0336 39.1214C27.3482 38.9458 28.6094 38.6032 29.7963 38.1145C30.2959 37.9094 30.8687 38.0806 31.1382 38.5487L31.3105 38.8465C31.484 39.1465 31.5113 39.513 31.3607 39.8251C30.884 40.8178 31.0149 42.0768 31.9291 42.9811C32.5869 43.6324 33.583 43.8954 34.4775 43.6564C36.307 43.1655 37.0543 41.1582 36.1783 39.6418C35.7125 38.8345 34.8964 38.3588 34.0335 38.289C33.6844 38.2617 33.3757 38.0577 33.2 37.7555L33.0342 37.4686C32.7647 37.0017 32.9011 36.4202 33.3277 36.0908C34.3619 35.2922 35.2903 34.3627 36.0888 33.3296C36.4183 32.903 36.9998 32.7667 37.4667 33.0361L37.7536 33.202C38.0536 33.3754 38.2609 33.6787 38.2871 34.0245C38.3711 35.134 39.1282 36.1671 40.3948 36.4835C41.2806 36.705 42.257 36.43 42.9018 35.7842C44.2414 34.4445 43.8836 32.3325 42.3672 31.4564C41.5599 30.9906 40.6152 30.9862 39.833 31.3583C39.5166 31.5088 39.1478 31.487 38.8446 31.3124L38.5467 31.1401C38.0787 30.8706 37.9074 30.2968 38.1125 29.7982C38.6013 28.6113 38.9438 27.3512 39.1195 26.0356C39.1904 25.501 39.6257 25.0908 40.1657 25.0908H40.9675C41.357 25.0908 41.7126 25.3025 41.9079 25.6396C42.4719 26.6138 43.5181 27.2727 44.7258 27.2727C46.7342 27.2727 48.3205 25.4628 47.943 23.3846C47.7085 22.0973 46.6644 21.0401 45.3804 20.7903L45.3847 20.787Z" fill="#63D4FF"/>
<path d="M34.0379 38.2868C33.6888 38.2595 33.38 38.0566 33.2044 37.7533L33.0386 37.4664C32.7691 36.9995 32.9055 36.418 33.332 36.0886C34.1273 35.4744 34.8364 34.762 35.4965 34.0059C33.2229 35.2714 30.608 35.998 27.8206 35.998C19.0844 35.998 12.002 28.9156 12.002 20.1794C12.002 17.392 12.7285 14.777 13.994 12.5035C13.2369 13.1624 12.5256 13.8726 11.9114 14.6679C11.582 15.0945 11.0005 15.2309 10.5336 14.9614L10.2466 14.7956C9.94663 14.6221 9.73936 14.3188 9.71317 13.973C9.63026 12.8744 8.88624 11.85 7.64257 11.5238C6.7469 11.2893 5.75197 11.5588 5.0974 12.2144C3.75882 13.5541 4.11665 15.6661 5.63196 16.5411C6.43926 17.0069 7.38401 17.0113 8.16622 16.6393C8.4815 16.4887 8.85133 16.5105 9.15461 16.6851L9.45244 16.8575C9.92045 17.1269 10.0917 17.7007 9.88663 18.1993C9.39789 19.3863 9.05534 20.6463 8.87969 21.9609C8.80878 22.4954 8.3735 22.9056 7.83457 22.9056H7.14073C6.64654 22.9056 6.29198 22.7049 6.10107 22.3722C5.43996 21.2158 4.10356 20.499 2.61879 20.787C1.33475 21.0368 0.290719 22.094 0.0561664 23.3813C-0.32239 25.4595 1.26384 27.2694 3.27226 27.2694C4.47993 27.2694 5.52614 26.6116 6.09016 25.6363C6.28544 25.2991 6.63999 25.0875 7.03055 25.0875H8.78151C8.89933 26.7446 9.28007 28.3265 9.88445 29.7938C10.0895 30.2935 9.91827 30.8662 9.45026 31.1357L9.15243 31.3081C8.85242 31.4815 8.48586 31.5088 8.17386 31.3582C7.1811 30.8804 5.92215 31.0124 5.01776 31.9266C4.36647 32.5844 4.10247 33.5816 4.34247 34.4751C4.8334 36.3046 6.84073 37.0508 8.35713 36.1758C9.16443 35.71 9.64117 34.894 9.7099 34.031C9.73717 33.6819 9.94009 33.3732 10.2434 33.1976L10.5303 33.0317C10.9972 32.7623 11.5787 32.8986 11.9081 33.3252C12.7067 34.3594 13.6351 35.2878 14.6693 36.0864C15.0959 36.4158 15.2322 36.9973 14.9628 37.4642L14.797 37.7511C14.6235 38.0512 14.3202 38.2584 13.9744 38.2835C12.8758 38.3664 11.8514 39.1105 11.5252 40.3541C11.2907 41.2498 11.5601 42.2436 12.2147 42.8982C13.5544 44.2379 15.6664 43.8801 16.5414 42.3636C17.0072 41.5563 17.0116 40.6116 16.6396 39.8294C16.489 39.513 16.5108 39.1443 16.6854 38.841L16.8577 38.5432C17.1272 38.0752 17.701 37.9039 18.1996 38.109C19.3865 38.5977 20.6466 38.9403 21.9623 39.1159C22.4968 39.1868 22.907 39.6221 22.907 40.161V40.8549C22.907 41.3491 22.7063 41.7036 22.3735 41.8945C21.2171 42.5556 20.5004 43.8921 20.7884 45.3768C21.0371 46.6609 22.0953 47.7049 23.3827 47.9394C25.4609 48.318 27.2708 46.7318 27.2708 44.7233C27.2708 43.5157 26.6129 42.4695 25.6376 41.9054C25.3005 41.7102 25.0889 41.3556 25.0889 40.9651V40.1632C25.0889 39.6243 25.4991 39.189 26.0336 39.1181C27.3482 38.9425 28.6094 38.5999 29.7963 38.1112C30.2959 37.9061 30.8687 38.0773 31.1382 38.5453L31.3105 38.8432C31.484 39.1432 31.5113 39.5097 31.3607 39.8218C30.884 40.8145 31.0149 42.0735 31.9291 42.9778C32.5869 43.6291 33.583 43.8921 34.4775 43.6531C36.307 43.1622 37.0543 41.1549 36.1783 39.6385C35.7125 38.8312 34.8964 38.3544 34.0335 38.2857L34.0379 38.2868Z" fill="#36C8FF"/>
<path d="M31.0934 26.1786C33.2022 26.1786 34.9117 24.4691 34.9117 22.3603C34.9117 20.2515 33.2022 18.542 31.0934 18.542C28.9847 18.542 27.2751 20.2515 27.2751 22.3603C27.2751 24.4691 28.9847 26.1786 31.0934 26.1786Z" fill="#FFDAAA"/>
<path d="M23.4568 30.5421C24.9631 30.5421 26.1842 29.321 26.1842 27.8148C26.1842 26.3085 24.9631 25.0874 23.4568 25.0874C21.9506 25.0874 20.7295 26.3085 20.7295 27.8148C20.7295 29.321 21.9506 30.5421 23.4568 30.5421Z" fill="#FFDAAA"/>
<path d="M19.0931 20.7237C20.5993 20.7237 21.8204 19.5027 21.8204 17.9964C21.8204 16.4901 20.5993 15.269 19.0931 15.269C17.5868 15.269 16.3657 16.4901 16.3657 17.9964C16.3657 19.5027 17.5868 20.7237 19.0931 20.7237Z" fill="#FFDAAA"/>
</g>
<defs>
<clipPath id="clip0_424_534">
<rect width="48" height="48" fill="white"/>
</clipPath>
</defs>
</svg>
