<svg width="32" height="46" viewBox="0 0 32 46" fill="none" xmlns="http://www.w3.org/2000/svg">
<path d="M6.55048 17.1838C6.55048 22.3324 10.7392 26.521 15.8877 26.521V14.5345C13.0384 14.5345 10.5735 12.8601 9.42336 10.4438C7.60017 12.1871 6.55048 14.6009 6.55048 17.1838Z" fill="#E8F7FF"/>
<path d="M15.8877 14.5345V26.521C21.0363 26.521 25.2249 22.3323 25.2249 17.1838C25.2249 14.6009 24.1753 12.1871 22.3521 10.4438C21.2019 12.86 18.737 14.5345 15.8877 14.5345Z" fill="#EFFAFF"/>
<path fill-rule="evenodd" clip-rule="evenodd" d="M23.5233 30.2983C21.2704 29.0101 18.6636 28.2729 15.8877 28.2729C13.1119 28.2729 10.5051 29.0101 8.2522 30.2983L15.8878 37.9339L23.5233 30.2983Z" fill="#14BFFF"/>
<path fill-rule="evenodd" clip-rule="evenodd" d="M8.25221 30.2983C3.59925 32.9588 0.45636 37.9713 0.45636 43.7044V45.5306H15.8877V37.9339L8.25221 30.2983Z" fill="#36C8FF"/>
<path fill-rule="evenodd" clip-rule="evenodd" d="M23.5233 30.2983L15.8878 37.9339V45.5306H31.3192V43.7044C31.3191 37.9713 28.1763 32.9588 23.5233 30.2983Z" fill="#63D4FF"/>
<path d="M15.8877 14.5344C18.7371 14.5344 21.202 12.8599 22.3521 10.4437C22.7946 9.51414 23.0431 8.47512 23.0431 7.37904C23.0431 3.43354 19.8332 0.223633 15.8877 0.223633C11.9422 0.223633 8.73242 3.43354 8.73242 7.37895C8.73242 8.47512 8.98088 9.51405 9.42336 10.4436C10.5735 12.8598 13.0385 14.5344 15.8877 14.5344Z" fill="#FFDAAA"/>
</svg>
