<svg width="15" height="15" viewBox="0 0 15 15" fill="none" xmlns="http://www.w3.org/2000/svg">
<g clip-path="url(#clip0_313_353)">
<path fill-rule="evenodd" clip-rule="evenodd" d="M14.3006 0.375C14.0858 0.375 13.6904 0.416049 13.1133 0.496644C12.5363 0.577538 12.1633 0.655831 11.9951 0.72992C11.8263 0.804007 11.5214 1.06111 11.0811 1.49832C10.6404 1.93713 10.0011 2.74689 9.16526 3.92709C8.32807 5.10859 7.54735 6.35576 6.8215 7.66962C6.09534 8.98397 5.41765 10.3485 4.78871 11.763C4.20683 10.7669 3.681 10.0914 3.20866 9.73614C2.7375 9.37952 2.34002 9.20162 2.01685 9.20162C1.76445 9.20162 1.44827 9.33618 1.06684 9.60409C0.685897 9.8728 0.495361 10.1358 0.495361 10.3952C0.495361 10.5829 0.670167 10.8612 1.01978 11.2291C1.71221 11.9607 2.32513 12.7365 2.85555 13.5577C3.17954 14.0489 3.39499 14.3503 3.50241 14.4602C3.60923 14.569 3.93471 14.625 4.47905 14.625C5.23624 14.625 5.68598 14.5279 5.82904 14.3326C5.97081 14.1445 6.23313 13.584 6.61576 12.6495C7.56119 10.3098 8.73667 8.07549 10.1417 5.94818C11.548 3.82177 12.836 2.21309 14.0086 1.12329C14.2421 0.916243 14.3825 0.782097 14.4319 0.720123C14.4799 0.657949 14.5045 0.595375 14.5045 0.530197C14.5044 0.427377 14.4363 0.375 14.3006 0.375Z" fill="#09B285"/>
</g>
<defs>
<clipPath id="clip0_313_353">
<rect width="15" height="15" fill="white"/>
</clipPath>
</defs>
</svg>
