<svg width="44" height="44" viewBox="0 0 44 44" fill="none" xmlns="http://www.w3.org/2000/svg">
<path d="M15.9579 4.45841H27.5943V7.06356H31.0678V0.984863H12.4844V7.06356H15.9579V4.45841Z" fill="#FFDAAA"/>
<path fill-rule="evenodd" clip-rule="evenodd" d="M21.7761 7.06348V14.7704H26.032V21.2607H32.5224V29.7726H26.032V36.2629H21.7761V43.9699H43.2686V7.06348H21.7761Z" fill="#63D4FF"/>
<path fill-rule="evenodd" clip-rule="evenodd" d="M17.5202 36.2629V29.7726H11.0298V21.2607H17.5202V14.7704H21.7761V7.06348H0.283569V43.9699H21.7761V36.2629H17.5202Z" fill="#36C8FF"/>
<path d="M26.032 36.263V29.7727H32.5224V21.2608H26.032V14.7705H21.7761V36.263H26.032Z" fill="#EFFAFF"/>
<path d="M17.5202 21.2608H11.0298V29.7727H17.5202V36.263H21.7761V14.7705H17.5202V21.2608Z" fill="#E8F7FF"/>
</svg>
