<svg width="44" height="45" viewBox="0 0 44 45" fill="none" xmlns="http://www.w3.org/2000/svg">
<path fill-rule="evenodd" clip-rule="evenodd" d="M15.0528 35.9612C6.75271 35.9612 0 29.2086 0 20.9084C0 14.9938 3.486 9.60343 8.88093 7.17578L11.4265 12.8329C8.25371 14.2606 6.20352 17.4304 6.20352 20.9084C6.20352 25.7879 10.1734 29.7578 15.0529 29.7578V35.9612H15.0528Z" fill="#63D4FF"/>
<path fill-rule="evenodd" clip-rule="evenodd" d="M26.0256 29.3228H14.2179V34.0715H28.1134C28.8482 34.0715 29.4439 33.4758 29.4439 32.741C29.4439 30.8532 27.9135 29.3228 26.0256 29.3228V29.3228Z" fill="#63D4FF"/>
<path fill-rule="evenodd" clip-rule="evenodd" d="M6.83241 0.525544C6.13169 -0.175181 4.99558 -0.175181 4.29486 0.525544L2.53799 2.28232C1.83727 2.98304 1.83727 4.11915 2.53799 4.81987L5.3478 7.62968L9.64222 3.33526L6.83241 0.525544Z" fill="#36C8FF"/>
<path fill-rule="evenodd" clip-rule="evenodd" d="M15.0528 35.9614V29.7579C12.4528 29.7579 10.1112 28.6306 8.49064 26.8394C7.7297 27.3822 7.06643 28.0725 6.54346 28.8885L4.67554 31.8031C7.37809 34.3783 11.034 35.9614 15.0528 35.9614Z" fill="#36C8FF"/>
<path fill-rule="evenodd" clip-rule="evenodd" d="M20.2445 32.9023C20.2445 31.6053 19.9101 30.3854 19.3242 29.3228H14.2179V34.0715H20.2445V32.9023Z" fill="#36C8FF"/>
<path fill-rule="evenodd" clip-rule="evenodd" d="M12.806 28.1206C11.1767 28.1206 9.65957 28.9503 8.78039 30.322L3.98779 37.7999L10.7876 40.9081L17.5875 37.7999V32.902C17.5875 30.2613 15.4468 28.1206 12.806 28.1206Z" fill="#63D4FF"/>
<circle cx="12.5729" cy="33.0469" r="1.645" fill="#1C208F"/>
<path fill-rule="evenodd" clip-rule="evenodd" d="M2.49255 12.6203L7.03708 17.1648C7.91945 15.2781 9.45623 13.7195 11.4264 12.8329L8.88082 7.17578C6.22662 8.37017 4.03491 10.282 2.49255 12.6203Z" fill="#36C8FF"/>
<circle cx="33.3326" cy="16.8614" r="10.0518" fill="#FFDAAA"/>
<path d="M38.9778 15.5363C38.3725 15.1913 38.0778 14.4801 38.2618 13.8081L38.2624 13.806C38.5744 12.6663 37.528 11.6199 36.3883 11.9319L36.3862 11.9325C35.7142 12.1165 35.003 11.8218 34.658 11.2165C34.0728 10.1896 32.5925 10.1896 32.0073 11.2165C31.6623 11.8218 30.951 12.1165 30.2791 11.9325L30.277 11.9319C29.1372 11.6199 28.0908 12.6663 28.4028 13.806L28.4035 13.8081C28.5874 14.4801 28.2928 15.1913 27.6874 15.5363C26.6605 16.1215 26.6605 17.6018 27.6874 18.1871C28.2928 18.532 28.5874 19.2433 28.4035 19.9152L28.4028 19.9173C28.0908 21.0571 29.1372 22.1036 30.277 21.7915L30.2791 21.7908C30.951 21.6069 31.6623 21.9016 32.0073 22.5069C32.5925 23.5338 34.0728 23.5338 34.658 22.5069C35.003 21.9016 35.7142 21.6069 36.3862 21.7908L36.3883 21.7915C37.528 22.1036 38.5745 21.0571 38.2624 19.9173L38.2618 19.9152C38.0778 19.2433 38.3725 18.532 38.9778 18.1871C40.0047 17.6018 40.0047 16.1215 38.9778 15.5363Z" fill="white"/>
<path fill-rule="evenodd" clip-rule="evenodd" d="M12.6534 2.2579C11.5244 1.12888 9.69395 1.12888 8.56502 2.2579L4.2706 6.55223C3.14157 7.68126 3.14157 9.51171 4.2706 10.6406L14.9117 21.2819L23.2946 12.8991L12.6534 2.2579Z" fill="#63D4FF"/>
<path fill-rule="evenodd" clip-rule="evenodd" d="M10.5279 8.79301C10.5279 6.45632 11.3503 4.26761 12.7833 2.38774L12.6534 2.2579C11.5244 1.12888 9.69395 1.12888 8.56502 2.2579L4.2706 6.55232C3.14157 7.68134 3.14157 9.5118 4.2706 10.6407L14.9117 21.2819L17.2062 18.9874C13.1544 16.6766 10.5279 12.971 10.5279 8.79301Z" fill="#36C8FF"/>
<path fill-rule="evenodd" clip-rule="evenodd" d="M25.2928 12.6996L23.4946 10.9015C22.8877 10.2946 21.9036 10.2946 21.2966 10.9015L12.9137 19.2843C12.3068 19.8913 12.3068 20.8754 12.9137 21.4823L14.7118 23.2805C15.3188 23.8874 16.3029 23.8874 16.9098 23.2805L25.2927 14.8976C25.8997 14.2907 25.8997 13.3066 25.2928 12.6996Z" fill="#63D4FF"/>
<path fill-rule="evenodd" clip-rule="evenodd" d="M30.2749 37.8003H3.98786C2.15244 37.8003 0.664551 39.2882 0.664551 41.1236V42.5943C0.664551 43.38 1.30151 44.0169 2.08717 44.0169H32.5292C33.6233 44.0169 34.5103 43.1299 34.5103 42.0358C34.5103 39.6966 32.614 37.8003 30.2749 37.8003V37.8003Z" fill="#63D4FF"/>
<path fill-rule="evenodd" clip-rule="evenodd" d="M14.8471 17.3506L12.9137 19.284C12.3068 19.891 12.3068 20.875 12.9137 21.482L14.7118 23.2801C15.3188 23.8871 16.3029 23.8871 16.9098 23.2801L19.9389 20.251C18.0041 19.5427 16.277 18.5531 14.8471 17.3506V17.3506Z" fill="#36C8FF"/>
</svg>
