<svg width="28" height="28" viewBox="0 0 28 28" fill="none" xmlns="http://www.w3.org/2000/svg">
<path fill-rule="evenodd" clip-rule="evenodd" d="M17.6667 16.75C17.6667 16.244 18.0764 15.8333 18.5833 15.8333C19.0902 15.8333 19.5 16.244 19.5 16.75V22.25C19.5 22.756 19.0902 23.1667 18.5833 23.1667H14V24.0833C14 24.3583 13.8762 24.6178 13.6645 24.7919C13.4995 24.9276 13.2932 25 13.0833 25C13.0237 25 12.9633 24.9945 12.9037 24.9817L3.737 23.1483C3.3089 23.0631 3 22.6873 3 22.25V3.91665C3 3.90717 3.00321 3.89816 3.00643 3.88914C3.00942 3.88075 3.01241 3.87234 3.01285 3.8635C3.01322 3.85246 3.01202 3.84159 3.01082 3.83068C3.00912 3.8153 3.00741 3.79984 3.0101 3.78375C3.01975 3.71617 3.04563 3.65563 3.07166 3.59474C3.07528 3.58626 3.07891 3.57777 3.0825 3.56925C3.08669 3.55857 3.08961 3.54772 3.09252 3.53692C3.0966 3.52177 3.10065 3.50669 3.10815 3.49225C3.16865 3.37765 3.25205 3.2814 3.35196 3.2026C3.35563 3.19985 3.35815 3.19596 3.36068 3.19206C3.36321 3.18815 3.36575 3.18423 3.36945 3.18146C3.37977 3.1736 3.39167 3.1697 3.4036 3.16579C3.41392 3.1624 3.42425 3.15901 3.4336 3.15305C3.51515 3.10175 3.60225 3.06415 3.6985 3.0394C3.73975 3.0293 3.77915 3.022 3.82225 3.0174C3.83583 3.01586 3.84892 3.0125 3.86201 3.00914C3.87982 3.00457 3.89763 3 3.91665 3H18.5833C19.0902 3 19.5 3.41065 19.5 3.9167V9.4167C19.5 9.9227 19.0902 10.3333 18.5833 10.3333C18.0764 10.3333 17.6667 9.9227 17.6667 9.4167V4.83335H10.1628L13.3464 5.7885C13.7342 5.9049 14 6.2624 14 6.66665V21.3333H17.6667V16.75ZM24.7305 12.4341C24.8158 12.5194 24.8827 12.6211 24.9294 12.733C25.022 12.9566 25.022 13.2096 24.9294 13.4332C24.8827 13.5459 24.8158 13.6477 24.7305 13.732L21.9814 16.4811C21.8027 16.6608 21.568 16.7497 21.3333 16.7497C21.0986 16.7497 20.864 16.6608 20.6852 16.4811C20.3268 16.1236 20.3268 15.5434 20.6852 15.185L21.8705 13.9997H16.75C16.2431 13.9997 15.8333 13.5891 15.8333 13.0831C15.8333 12.5771 16.2431 12.1664 16.75 12.1664H21.8705L20.6852 10.9812C20.3268 10.6237 20.3268 10.0434 20.6852 9.68504C21.0437 9.32754 21.623 9.32754 21.9814 9.68504L24.7305 12.4341Z" fill="white"/>
</svg>
