<svg width="40" height="45" viewBox="0 0 40 45" fill="none" xmlns="http://www.w3.org/2000/svg">
<ellipse cx="26.612" cy="41.1043" rx="1.91045" ry="1.91045" fill="#EFFAFF"/>
<ellipse cx="32.3433" cy="43.0149" rx="1.91045" ry="1.91045" fill="#EFFAFF"/>
<ellipse cx="30.9105" cy="36.8059" rx="1.43284" ry="1.43284" fill="#EFFAFF"/>
<path fill-rule="evenodd" clip-rule="evenodd" d="M3.50049 37.1017C8.16774 41.7689 15.7615 41.7689 20.4286 37.1017L28.3174 29.2129L19.8533 20.7488L3.50049 37.1017Z" fill="#63D4FF"/>
<path d="M36.2062 4.396L19.8533 20.7488L28.3173 29.2129L36.2061 21.3241C40.8734 16.657 40.8734 9.06325 36.2062 4.396Z" fill="#FFF1DE"/>
<path fill-rule="evenodd" clip-rule="evenodd" d="M11.3892 12.2847L3.50044 20.1734C-1.16681 24.8407 -1.16681 32.4344 3.50044 37.1016L19.8533 20.7487L11.3892 12.2847Z" fill="#36C8FF"/>
<path d="M36.2062 4.39595C31.5389 -0.271305 23.9452 -0.271305 19.278 4.39595L11.3893 12.2847L19.8534 20.7488L36.2062 4.39595Z" fill="#FFDAAA"/>
</svg>
