<svg width="28" height="28" viewBox="0 0 28 28" fill="none" xmlns="http://www.w3.org/2000/svg">
<path d="M26 14.5C26 8.15911 20.8409 3 14.5 3C8.15911 3 3 8.15911 3 14.5C3 17.8492 4.44022 20.8681 6.73269 22.9715L6.72182 22.9811L7.09484 23.2956C7.11909 23.3161 7.14544 23.3328 7.16969 23.3529C7.36791 23.5173 7.57324 23.6732 7.78233 23.8242C7.85007 23.8731 7.91782 23.9221 7.98682 23.9697C8.21013 24.1236 8.43929 24.2696 8.67347 24.408C8.72449 24.4381 8.77593 24.4674 8.82736 24.4966C9.08371 24.6426 9.34549 24.7802 9.61354 24.9065C9.6332 24.9157 9.65327 24.924 9.67293 24.9332C10.5465 25.3393 11.4791 25.6374 12.4543 25.8135C12.4798 25.8181 12.5053 25.8227 12.5312 25.8273C12.834 25.8796 13.1401 25.9214 13.4499 25.9494C13.4876 25.9527 13.5252 25.9548 13.5633 25.9582C13.8719 25.9837 14.1839 26 14.5 26C14.8132 26 15.1223 25.9837 15.4292 25.959C15.4681 25.9557 15.507 25.9536 15.5459 25.9502C15.8532 25.9222 16.1568 25.8817 16.4567 25.8302C16.4826 25.8256 16.5089 25.821 16.5349 25.816C17.4954 25.6437 18.4146 25.3522 19.2769 24.9566C19.3087 24.942 19.3409 24.9282 19.3727 24.9131C19.6307 24.7919 19.8828 24.661 20.13 24.5217C20.1915 24.487 20.2525 24.4519 20.3136 24.4159C20.5385 24.2834 20.7598 24.1449 20.9747 23.9977C21.0521 23.9451 21.1278 23.8894 21.2043 23.8342C21.3879 23.7021 21.5681 23.5658 21.7433 23.4232C21.7822 23.3918 21.824 23.3646 21.8621 23.3324L22.2447 23.0129L22.2334 23.0033C24.546 20.899 26 17.8664 26 14.5ZM3.83636 14.5C3.83636 8.61995 8.61995 3.83636 14.5 3.83636C20.3801 3.83636 25.1636 8.61995 25.1636 14.5C25.1636 17.6686 23.7732 20.5172 21.5719 22.4718C21.4489 22.3869 21.3251 22.3108 21.1984 22.2472L17.6577 20.4771C17.3399 20.3182 17.1425 19.9987 17.1425 19.6436V18.4071C17.2245 18.3059 17.311 18.1913 17.4005 18.0654C17.8588 17.4181 18.2264 16.698 18.4945 15.9231C19.0243 15.6713 19.3664 15.1436 19.3664 14.5477V13.0652C19.3664 12.7027 19.2334 12.351 18.9955 12.0745V10.1229C19.0172 9.90544 19.0941 8.681 18.208 7.67067C17.4373 6.79082 16.1899 6.34545 14.5 6.34545C12.8101 6.34545 11.5627 6.79082 10.792 7.67025C9.90585 8.68058 9.9828 9.90585 10.0045 10.1225V12.0741C9.76702 12.3505 9.63362 12.7022 9.63362 13.0648V14.5473C9.63362 15.0077 9.8402 15.4371 10.194 15.7269C10.5327 17.0538 11.2298 18.0583 11.4874 18.3987V19.6089C11.4874 19.9502 11.3013 20.2638 11.0015 20.4277L7.69493 22.2313C7.58955 22.2886 7.485 22.3555 7.38045 22.4304C5.20633 20.4767 3.83636 17.6456 3.83636 14.5Z" fill="white"/>
</svg>
