<svg width="23" height="23" viewBox="0 0 23 23" fill="none" xmlns="http://www.w3.org/2000/svg">
<path d="M23 11.5C23 5.15911 17.8409 0 11.5 0C5.15911 0 0 5.15911 0 11.5C0 14.8492 1.44022 17.8681 3.73269 19.9715L3.72182 19.9811L4.09484 20.2956C4.11909 20.3161 4.14544 20.3328 4.16969 20.3529C4.36791 20.5173 4.57324 20.6732 4.78233 20.8242C4.85007 20.8731 4.91782 20.9221 4.98682 20.9697C5.21013 21.1236 5.43929 21.2696 5.67347 21.408C5.72449 21.4381 5.77593 21.4674 5.82736 21.4966C6.08371 21.6426 6.34549 21.7802 6.61354 21.9065C6.6332 21.9157 6.65327 21.924 6.67293 21.9332C7.54651 22.3393 8.47905 22.6374 9.45425 22.8135C9.47976 22.8181 9.50527 22.8227 9.5312 22.8273C9.83396 22.8796 10.1401 22.9214 10.4499 22.9494C10.4876 22.9527 10.5252 22.9548 10.5633 22.9582C10.8719 22.9837 11.1839 23 11.5 23C11.8132 23 12.1223 22.9837 12.4292 22.959C12.4681 22.9557 12.507 22.9536 12.5459 22.9502C12.8532 22.9222 13.1568 22.8817 13.4567 22.8302C13.4826 22.8256 13.5089 22.821 13.5349 22.816C14.4954 22.6437 15.4146 22.3522 16.2769 21.9566C16.3087 21.942 16.3409 21.9282 16.3727 21.9131C16.6307 21.7919 16.8828 21.661 17.13 21.5217C17.1915 21.487 17.2525 21.4519 17.3136 21.4159C17.5385 21.2834 17.7598 21.1449 17.9747 20.9977C18.0521 20.9451 18.1278 20.8894 18.2043 20.8342C18.3879 20.7021 18.5681 20.5658 18.7433 20.4232C18.7822 20.3918 18.824 20.3646 18.8621 20.3324L19.2447 20.0129L19.2334 20.0033C21.546 17.899 23 14.8664 23 11.5ZM0.836364 11.5C0.836364 5.61995 5.61995 0.836364 11.5 0.836364C17.3801 0.836364 22.1636 5.61995 22.1636 11.5C22.1636 14.6686 20.7732 17.5172 18.5719 19.4718C18.4489 19.3869 18.3251 19.3108 18.1984 19.2472L14.6577 17.4771C14.3399 17.3182 14.1425 16.9987 14.1425 16.6436V15.4071C14.2245 15.3059 14.311 15.1913 14.4005 15.0654C14.8588 14.4181 15.2264 13.698 15.4945 12.9231C16.0243 12.6713 16.3664 12.1436 16.3664 11.5477V10.0652C16.3664 9.70265 16.2334 9.35096 15.9955 9.07455V7.12289C16.0172 6.90544 16.0941 5.681 15.208 4.67067C14.4373 3.79082 13.1899 3.34545 11.5 3.34545C9.81013 3.34545 8.56269 3.79082 7.79198 4.67025C6.90585 5.68058 6.9828 6.90585 7.00455 7.12247V9.07413C6.76702 9.35054 6.63362 9.70224 6.63362 10.0648V11.5473C6.63362 12.0077 6.8402 12.4371 7.19398 12.7269C7.53271 14.0538 8.22982 15.0583 8.48742 15.3987V16.6089C8.48742 16.9502 8.30133 17.2638 8.00149 17.4277L4.69493 19.2313C4.58955 19.2886 4.485 19.3555 4.38045 19.4304C2.20633 17.4767 0.836364 14.6456 0.836364 11.5Z" fill="white"/>
</svg>
