<svg width="28" height="28" viewBox="0 0 28 28" fill="none" xmlns="http://www.w3.org/2000/svg">
<path fill-rule="evenodd" clip-rule="evenodd" d="M21.2107 18.9493L14 23.792L6.78933 18.9493C6.54756 18.7787 6.35556 18.5689 6.21333 18.32C6.07111 18.0711 6 17.7973 6 17.4987V6.00001C6 5.51645 6.17778 5.0969 6.53333 4.74134C6.88889 4.38579 7.30844 4.20801 7.792 4.20801H20.208C20.6916 4.20801 21.1111 4.38579 21.4667 4.74134C21.8222 5.0969 22 5.51645 22 6.00001V17.4987C22 17.7973 21.9289 18.0711 21.7867 18.32C21.6444 18.5689 21.4524 18.7787 21.2107 18.9493ZM7.792 13.1253L12.208 17.5413L20.208 9.54134L18.9493 8.28267L12.208 15.0453L9.05067 11.8667L7.792 13.1253Z" fill="white"/>
</svg>
