<svg width="44" height="44" viewBox="0 0 44 44" fill="none" xmlns="http://www.w3.org/2000/svg">
<path d="M44 34.3947V38.0614C44 38.5655 43.5875 38.978 43.0833 38.978H0.916667C0.4125 38.978 0 38.5655 0 38.0614V34.3947C0 33.8905 0.4125 33.478 0.916667 33.478H43.0833C43.5875 33.478 44 33.8905 44 34.3947Z" fill="#EFFAFF"/>
<path d="M10.2483 29.0228C10.2483 31.4794 8.24993 33.4778 5.79327 33.4778C3.32743 33.4778 1.3291 31.4794 1.3291 29.0228C1.3291 26.5661 3.32743 24.5586 5.79327 24.5586C8.24993 24.5586 10.2483 26.5661 10.2483 29.0228Z" fill="#36C8FF"/>
<path d="M42.8908 27.501L41.6075 32.7718C41.5066 33.1843 41.14 33.4777 40.7183 33.4777H14.6666C12.4391 33.4593 10.6333 31.6443 10.6333 29.4168C10.6333 28.2985 11.0733 27.2627 11.88 26.4927C12.6866 25.7135 13.7408 25.3102 14.8591 25.3652L22.4308 25.741C22.4675 25.741 22.5041 25.7502 22.5408 25.7593L37.9316 28.491L39.3983 26.071C39.8566 25.3193 40.7733 24.9802 41.6075 25.246C42.5516 25.5485 43.1108 26.5385 42.8908 27.501Z" fill="#63D4FF"/>
<path d="M41.7174 7.21531C38.8574 4.35531 34.2099 4.35531 31.3499 7.21531L30.6991 7.85698C30.0208 8.53531 30.1033 9.66281 30.9558 11.1936C31.6158 12.3761 32.6699 13.7145 33.9441 14.9886C34.3841 15.4286 37.7116 18.6828 39.9116 18.6828C40.3516 18.6828 40.7549 18.5453 41.0758 18.2336L41.7174 17.5828C43.1016 16.1986 43.8716 14.3561 43.8716 12.3945C43.8716 10.442 43.1016 8.59948 41.7174 7.21531Z" fill="#FFDAAA"/>
<path d="M13.3008 7.85698L12.65 7.21531C9.78996 4.35531 5.14246 4.35531 2.28246 7.21531C0.898296 8.59948 0.128296 10.442 0.128296 12.3945C0.128296 14.3561 0.898296 16.1986 2.28246 17.5828L2.92413 18.2336C3.24496 18.5453 3.6483 18.6828 4.0883 18.6828C6.2883 18.6828 9.6158 15.4286 10.0558 14.9886C11.33 13.7145 12.3841 12.3761 13.0441 11.1936C13.8966 9.66281 13.9791 8.53531 13.3008 7.85698Z" fill="#FFDAAA"/>
<path d="M35.2367 13.6961C33.2017 11.6611 32.2758 9.97439 32.1108 9.26855C32.8167 9.43355 34.5033 10.3594 36.5383 12.3944C38.5642 14.4294 39.4992 16.1161 39.6642 16.8219C38.9583 16.6569 37.2717 15.7219 35.2367 13.6961Z" fill="#FFF1DE"/>
<path d="M8.76332 13.6961C6.72832 15.7219 5.04165 16.6569 4.33582 16.8219C4.50082 16.1161 5.43582 14.4294 7.46165 12.3944C9.49665 10.3594 11.1833 9.43355 11.8891 9.26855C11.7241 9.97439 10.7983 11.6611 8.76332 13.6961Z" fill="#FFF1DE"/>
</svg>
