<svg width="44" height="45" viewBox="0 0 44 45" fill="none" xmlns="http://www.w3.org/2000/svg">
<path fill-rule="evenodd" clip-rule="evenodd" d="M15.2526 36.0955C6.95248 36.0955 0.199768 29.3429 0.199768 21.0427C0.199768 15.128 3.68577 9.73771 9.08069 7.31006L11.6263 12.9671C8.45348 14.3949 6.40329 17.5647 6.40329 21.0427C6.40329 25.9221 10.3731 29.892 15.2527 29.892V36.0955H15.2526Z" fill="#63D4FF"/>
<path fill-rule="evenodd" clip-rule="evenodd" d="M26.2254 29.457H14.4177V34.2058H28.3132C29.048 34.2058 29.6437 33.6101 29.6437 32.8753C29.6437 30.9874 28.1133 29.457 26.2254 29.457V29.457Z" fill="#63D4FF"/>
<path fill-rule="evenodd" clip-rule="evenodd" d="M7.03218 0.659821C6.33146 -0.0409039 5.19535 -0.0409039 4.49462 0.659821L2.73776 2.41659C2.03704 3.11732 2.03704 4.25343 2.73776 4.95415L5.54757 7.76396L9.84199 3.46954L7.03218 0.659821Z" fill="#36C8FF"/>
<path fill-rule="evenodd" clip-rule="evenodd" d="M15.2525 36.0956V29.8922C12.6525 29.8922 10.3109 28.7649 8.69038 26.9736C7.92943 27.5164 7.26617 28.2068 6.7432 29.0228L4.87527 31.9373C7.57783 34.5125 11.2338 36.0956 15.2525 36.0956Z" fill="#36C8FF"/>
<path fill-rule="evenodd" clip-rule="evenodd" d="M20.4442 33.0366C20.4442 31.7396 20.1098 30.5197 19.5239 29.457H14.4176V34.2058H20.4442V33.0366Z" fill="#36C8FF"/>
<path fill-rule="evenodd" clip-rule="evenodd" d="M13.0058 28.2549C11.3765 28.2549 9.85934 29.0846 8.98016 30.4562L4.18756 37.9341L10.9874 41.0424L17.7872 37.9341V33.0362C17.7872 30.3956 15.6465 28.2549 13.0058 28.2549Z" fill="#63D4FF"/>
<circle cx="12.7726" cy="33.1811" r="1.645" fill="#1C208F"/>
<path fill-rule="evenodd" clip-rule="evenodd" d="M2.69232 12.7546L7.23685 17.2991C8.11922 15.4124 9.656 13.8538 11.6262 12.9671L9.08059 7.31006C6.42639 8.50444 4.23468 10.4163 2.69232 12.7546Z" fill="#36C8FF"/>
<circle cx="33.5324" cy="16.9957" r="10.0518" fill="#FFDAAA"/>
<path d="M39.1776 15.6706C38.5722 15.3256 38.2776 14.6144 38.4615 13.9424L38.4621 13.9403C38.7742 12.8006 37.7278 11.7542 36.588 12.0662L36.5859 12.0668C35.914 12.2507 35.2027 11.9561 34.8577 11.3507C34.2725 10.3238 32.7922 10.3238 32.207 11.3507C31.862 11.9561 31.1508 12.2507 30.4788 12.0668L30.4767 12.0662C29.337 11.7542 28.2906 12.8006 28.6026 13.9403L28.6032 13.9424C28.7872 14.6144 28.4925 15.3256 27.8872 15.6706C26.8602 16.2558 26.8602 17.7361 27.8872 18.3213C28.4925 18.6663 28.7872 19.3776 28.6032 20.0495L28.6026 20.0516C28.2906 21.1914 29.337 22.2378 30.4767 21.9257L30.4788 21.9251C31.1508 21.7412 31.862 22.0358 32.207 22.6412C32.7922 23.6681 34.2725 23.6681 34.8577 22.6412C35.2027 22.0358 35.914 21.7412 36.5859 21.9251L36.588 21.9257C37.7278 22.2378 38.7743 21.1914 38.4621 20.0516L38.4615 20.0495C38.2776 19.3776 38.5722 18.6663 39.1776 18.3213C40.2045 17.7361 40.2045 16.2557 39.1776 15.6706Z" fill="#EFFAFF"/>
<path d="M30.3334 13.9229C30.3334 13.2914 30.4 12.6744 30.5259 12.0774C30.5102 12.0737 30.4944 12.071 30.4787 12.0666L30.4766 12.0661C29.3369 11.7541 28.2905 12.8005 28.6025 13.9402L28.6031 13.9423C28.7871 14.6143 28.4924 15.3255 27.8871 15.6705C26.8602 16.2557 26.8602 17.736 27.8871 18.3212C28.4924 18.6662 28.7871 19.3775 28.6031 20.0494L28.6025 20.0515C28.2905 21.1913 29.3369 22.2378 30.4766 21.9257L30.4787 21.9251C31.1507 21.7411 31.8619 22.0358 32.2069 22.6411C32.7921 23.668 34.2724 23.668 34.8576 22.6411C34.9825 22.422 35.1558 22.2443 35.3573 22.1146C32.3521 20.4677 30.3334 17.416 30.3334 13.9229Z" fill="#E8F7FF"/>
<path fill-rule="evenodd" clip-rule="evenodd" d="M12.8532 2.39218C11.7242 1.26315 9.89372 1.26315 8.76478 2.39218L4.47036 6.68651C3.34134 7.81553 3.34134 9.64599 4.47036 10.7749L15.1115 21.4162L23.4944 13.0333L12.8532 2.39218Z" fill="#63D4FF"/>
<path fill-rule="evenodd" clip-rule="evenodd" d="M10.7276 8.92729C10.7276 6.59059 11.5501 4.40189 12.983 2.52201L12.8532 2.39218C11.7242 1.26315 9.89372 1.26315 8.76478 2.39218L4.47036 6.6866C3.34134 7.81562 3.34134 9.64608 4.47036 10.775L15.1115 21.4162L17.406 19.1216C13.3542 16.8109 10.7276 13.1052 10.7276 8.92729Z" fill="#36C8FF"/>
<path fill-rule="evenodd" clip-rule="evenodd" d="M25.4925 12.8339L23.6943 11.0358C23.0874 10.4288 22.1033 10.4288 21.4963 11.0358L13.1134 19.4186C12.5065 20.0255 12.5065 21.0097 13.1134 21.6166L14.9115 23.4147C15.5185 24.0217 16.5026 24.0217 17.1095 23.4147L25.4924 15.0319C26.0994 14.425 26.0994 13.4408 25.4925 12.8339Z" fill="#63D4FF"/>
<path fill-rule="evenodd" clip-rule="evenodd" d="M30.4747 37.9346H4.18766C2.35224 37.9346 0.864349 39.4225 0.864349 41.2579V42.7286C0.864349 43.5142 1.50131 44.1512 2.28697 44.1512H32.729C33.8231 44.1512 34.7101 43.2642 34.7101 42.1701C34.7101 39.8308 32.8138 37.9346 30.4747 37.9346V37.9346Z" fill="#63D4FF"/>
<path fill-rule="evenodd" clip-rule="evenodd" d="M15.0468 17.4849L13.1134 19.4182C12.5065 20.0253 12.5065 21.0093 13.1134 21.6162L14.9115 23.4144C15.5185 24.0214 16.5026 24.0214 17.1095 23.4144L20.1386 20.3853C18.2038 19.677 16.4767 18.6874 15.0468 17.4849V17.4849Z" fill="#36C8FF"/>
</svg>
