<svg width="44" height="44" viewBox="0 0 44 44" fill="none" xmlns="http://www.w3.org/2000/svg">
<path d="M22 0C16.8459 0 12.1501 1.9623 8.61891 5.18057C4.63132 8.81478 2.58618 14.0507 2.58618 19.871C2.58618 30.8454 11.0255 39.742 22 39.742C32.9745 39.742 41.871 30.8454 41.871 19.871C41.871 8.89651 32.9745 0 22 0ZM22 32.6452C14.945 32.6452 9.2258 26.9259 9.2258 19.871C9.2258 12.8159 14.945 7.0968 22 7.0968L23.2323 6.39813C29.7091 7.01809 35.4181 13.2317 35.4181 19.871C35.4182 26.9259 29.0549 32.6452 22 32.6452Z" fill="#FFF1DE"/>
<path d="M23.3101 38.4319C12.3356 38.4319 3.43911 29.5353 3.43911 18.5609C3.43911 13.4072 5.40106 8.71175 8.61882 5.18066C4.63132 8.81488 2.12891 14.0508 2.12891 19.8711C2.12891 30.8455 11.0254 39.7421 21.9999 39.7421C27.8206 39.7421 33.0564 37.2389 36.6907 33.2508C33.1596 36.469 28.4643 38.4319 23.3101 38.4319Z" fill="#FFDAAA"/>
<path d="M22 5.67725V7.09659C29.055 7.09659 34.7742 12.8157 34.7742 19.8708C34.7742 26.9257 29.055 32.6449 22 32.6449V34.0643C29.8389 34.0643 36.1935 27.7096 36.1935 19.8708C36.1935 12.0318 29.8389 5.67725 22 5.67725Z" fill="#FFDAAA"/>
<path d="M24.8387 18.4517H19.1612L18.5261 20.3223H24.835L26.258 19.8711C26.258 19.0871 25.6226 18.4517 24.8387 18.4517Z" fill="#63D4FF"/>
<path d="M19.1613 18.4517C18.3775 18.4517 17.7419 19.0871 17.7419 19.871V22.7097H26.2581V19.871H20.5806C19.7967 19.871 19.1613 19.2355 19.1613 18.4517Z" fill="#36C8FF"/>
<path d="M36.4639 34.6854L29.7034 22.3935C29.3292 21.7132 28.6143 21.2905 27.8379 21.2905H16.4761C15.6996 21.2905 14.9848 21.7132 14.6105 22.3935L7.84999 34.6854C7.56184 35.2093 7.41077 35.7976 7.41077 36.3955C7.41077 37.1794 8.04627 37.8148 8.83011 37.8148H35.4838L36.784 35.4838C36.7104 35.2067 36.6031 34.9386 36.4639 34.6854Z" fill="#63D4FF"/>
<path d="M12.7742 40.4805V43.2902C12.7742 43.6821 13.0919 43.9999 13.4838 43.9999H31.2258C31.6178 43.9999 31.9355 43.6821 31.9355 43.2902V41.1612L30.5093 40.4805H12.7742Z" fill="#FFF1DE"/>
<path d="M14.9031 41.1614H31.9354V38.3228H12.0645V43.2905C12.0645 43.6824 12.3822 44.0001 12.7741 44.0001H13.4838V42.5808C13.4838 41.7969 14.1193 41.1614 14.9031 41.1614Z" fill="#FFDAAA"/>
<path d="M39.0323 20.5805H37.613C37.2207 20.5805 36.9033 20.263 36.9033 19.8708C36.9033 19.4785 37.2208 19.1611 37.613 19.1611H39.0323C39.4246 19.1611 39.742 19.4786 39.742 19.8708C39.742 20.263 39.4246 20.5805 39.0323 20.5805Z" fill="#36C8FF"/>
<path d="M6.38716 20.5805H4.96773C4.57542 20.5805 4.25806 20.263 4.25806 19.8708C4.25806 19.4785 4.57551 19.1611 4.96773 19.1611H6.38707C6.77938 19.1611 7.09674 19.4786 7.09674 19.8708C7.09683 20.263 6.77938 20.5805 6.38716 20.5805Z" fill="#36C8FF"/>
<path d="M24.129 7.09699H19.871C19.0871 7.09699 18.4517 6.46148 18.4517 5.67764C18.4517 4.89372 19.0872 4.2583 19.871 4.2583H24.129C24.913 4.2583 25.5484 4.89381 25.5484 5.67764C25.5484 6.46148 24.913 7.09699 24.129 7.09699Z" fill="#FFDAAA"/>
<path d="M36.7831 35.4841H8.73488C8.7531 35.4456 8.761 35.4036 8.78154 35.3662L16.476 21.2905H16.162C15.3856 21.2905 14.6707 21.7132 14.2965 22.3935L7.53596 34.6854C7.39683 34.9385 7.2913 35.2072 7.21765 35.4841L8.51608 39.2489H35.4839L36.9032 38.3227V36.3954C36.9032 36.0864 36.8619 35.7804 36.7831 35.4841Z" fill="#36C8FF"/>
<path d="M7.21759 35.4839C7.13879 35.7802 7.09668 36.0862 7.09668 36.3953V38.3226C7.09668 39.1064 7.73219 39.7419 8.51602 39.7419H35.4837C36.2676 39.7419 36.9031 39.1064 36.9031 38.3226H10.4434C9.37901 38.3226 8.51611 37.4597 8.51611 36.3953C8.51611 36.0799 8.5987 35.7707 8.73482 35.4839H7.21759Z" fill="#63D4FF"/>
</svg>
