<svg width="44" height="44" viewBox="0 0 44 44" fill="none" xmlns="http://www.w3.org/2000/svg">
<g clip-path="url(#clip0_424_440)">
<path d="M41.1733 5.08616L28.1494 26.1628L19.8672 25.3371L37.5597 2.57593L41.1733 5.08616Z" fill="#FFF1DE"/>
<path d="M37.5596 2.57593L36.6283 3.77398L38.5174 5.08616L25.6476 25.9134L28.1494 26.1628L41.1733 5.08616L37.5596 2.57593Z" fill="#FFDAAA"/>
<path d="M43.7917 6.48465C44.5608 5.37886 43.3002 3.17214 40.9762 1.5558C38.6522 -0.0605487 36.1447 -0.47444 35.3757 0.631345C34.6066 1.73713 35.8672 3.94385 38.1912 5.5602C40.5152 7.17654 43.0227 7.59043 43.7917 6.48465Z" fill="#FFF1DE"/>
<path d="M40.9566 1.54183C38.9392 0.140535 36.785 -0.354637 35.7482 0.261449C36.5595 0.513933 37.4424 0.945684 38.3006 1.54183C40.6255 3.15677 41.8872 5.3627 41.1187 6.46889C41.0171 6.61515 40.8843 6.73418 40.7263 6.82802C42.1128 7.2596 43.29 7.1667 43.7746 6.46889C44.5432 5.36279 43.2814 3.15686 40.9566 1.54183Z" fill="#FFDAAA"/>
<path d="M2.65588 19.4568V24.3657C2.65588 28.4357 4.3675 32.318 7.37213 35.0634L10.5119 37.9321C11.0625 38.4353 11.3763 39.1469 11.3763 39.8929V42.2296C11.3763 43.2075 12.1691 44.0003 13.147 44.0003H30.8532C31.8311 44.0003 32.6238 43.2075 32.6238 42.2296V39.8929C32.6238 39.147 32.9375 38.4353 33.4883 37.9321L36.628 35.0634C39.6326 32.318 41.3443 28.4357 41.3443 24.3657V19.4568H2.65588Z" fill="#63D4FF"/>
<path d="M38.6881 19.4568V24.3657C38.6881 28.4357 36.9765 32.318 33.9718 35.0634L30.8321 37.9321C30.2814 38.4353 29.9677 39.1469 29.9677 39.8929V42.2296C29.9677 43.2075 29.1749 44.0003 28.197 44.0003H30.8529C31.8308 44.0003 32.6236 43.2075 32.6236 42.2296V39.8929C32.6236 39.147 32.9372 38.4354 33.488 37.9321L36.6277 35.0634C39.6324 32.318 41.344 28.4357 41.344 24.3657V19.4568H38.6881Z" fill="#36C8FF"/>
<path d="M41.0072 20.7846H2.99277C1.33985 20.7846 0 19.4447 0 17.7918C0 16.139 1.33985 14.7991 2.99277 14.7991H41.0073C42.6602 14.7991 44.0001 16.1389 44.0001 17.7918C44 19.4447 42.6602 20.7846 41.0072 20.7846Z" fill="#FFF1DE"/>
<path d="M41.0073 14.7993H38.3513C40.0042 14.7993 41.344 16.1393 41.344 17.7921C41.344 19.4449 40.0041 20.7849 38.3513 20.7849H41.0072C42.6601 20.7849 43.9999 19.445 43.9999 17.7921C44 16.1392 42.6601 14.7993 41.0073 14.7993Z" fill="#EFEDEF"/>
<path d="M27.0968 29.8425H24.9051C24.3421 29.8425 23.8857 29.3861 23.8857 28.8231V26.6315C23.8857 26.0685 23.4293 25.6121 22.8663 25.6121H21.1334C20.5704 25.6121 20.114 26.0685 20.114 26.6315V28.8231C20.114 29.3861 19.6576 29.8425 19.0946 29.8425H16.9029C16.34 29.8425 15.8835 30.2989 15.8835 30.8619V32.5948C15.8835 33.1578 16.34 33.6142 16.9029 33.6142H19.0946C19.6576 33.6142 20.114 34.0706 20.114 34.6336V36.8253C20.114 37.3882 20.5704 37.8447 21.1334 37.8447H22.8663C23.4293 37.8447 23.8857 37.3882 23.8857 36.8253V34.6336C23.8857 34.0706 24.3421 33.6142 24.9051 33.6142H27.0968C27.6597 33.6142 28.1161 33.1578 28.1161 32.5948V30.8619C28.1161 30.2989 27.6597 29.8425 27.0968 29.8425Z" fill="#FFDAAA"/>
</g>
<defs>
<clipPath id="clip0_424_440">
<rect width="44" height="44" fill="white"/>
</clipPath>
</defs>
</svg>
