<svg width="36" height="43" viewBox="0 0 36 43" fill="none" xmlns="http://www.w3.org/2000/svg">
<path fill-rule="evenodd" clip-rule="evenodd" d="M33.8885 28.6229C32.7755 31.6394 31.0923 34.2622 28.8849 36.4177C26.3723 38.8712 23.0823 40.8208 19.106 42.2115C18.9756 42.257 18.8394 42.2943 18.7026 42.3218C18.5219 42.3575 18.338 42.3767 18.1557 42.3793H18.12C17.9257 42.3793 17.7305 42.3597 17.5368 42.3218C17.4 42.2943 17.2658 42.257 17.1359 42.2125C13.1549 40.824 9.86079 38.8753 7.3457 36.4218C5.13738 34.2663 3.45444 31.645 2.34301 28.6286C0.322032 23.1441 0.437029 17.1023 0.529595 12.2472L0.531175 12.1726C0.549814 11.7717 0.56182 11.3506 0.568454 10.8855C0.602258 8.60233 2.41757 6.71341 4.70108 6.5861C9.46209 6.3204 13.1452 4.76762 16.2921 1.7003L16.3196 1.67502C16.8421 1.19576 17.5005 0.960715 18.1557 0.970509C18.7876 0.978723 19.4169 1.21346 19.9208 1.67502L19.9477 1.7003C23.0952 4.76762 26.7783 6.3204 31.5393 6.5861C33.8228 6.71341 35.6381 8.60233 35.6719 10.8855C35.6786 11.3537 35.6906 11.7742 35.7092 12.1726L35.7102 12.2042C35.8024 17.0685 35.9168 23.1223 33.8885 28.6229Z" fill="#36C8FF"/>
<path fill-rule="evenodd" clip-rule="evenodd" d="M33.8885 28.6231C32.7755 31.6395 31.0922 34.2624 28.8849 36.4179C26.3723 38.8714 23.0823 40.821 19.106 42.2117C18.9755 42.2572 18.8394 42.2945 18.7026 42.322C18.5219 42.3577 18.338 42.3769 18.1557 42.3795V0.970703C18.7876 0.978917 19.4169 1.21365 19.9208 1.67522L19.9476 1.70049C23.0952 4.76782 26.7783 6.3206 31.5393 6.58629C33.8228 6.71361 35.6381 8.60253 35.6719 10.8857C35.6785 11.3539 35.6905 11.7744 35.7092 12.1728L35.7101 12.2044C35.8024 17.0687 35.9167 23.1225 33.8885 28.6231Z" fill="#63D4FF"/>
<path d="M28.4394 21.6745C28.4394 27.3527 23.8291 31.9747 18.1557 31.9949H18.1194C12.4292 31.9949 7.79901 27.365 7.79901 21.6745C7.79901 15.9844 12.4292 11.3545 18.1194 11.3545H18.1557C23.8291 11.3747 28.4394 15.9967 28.4394 21.6745Z" fill="#E8F7FF"/>
<path d="M28.4394 21.6745C28.4394 27.3527 23.8291 31.9747 18.1557 31.9949V11.3545C23.8291 11.3747 28.4394 15.9967 28.4394 21.6745Z" fill="white"/>
<path d="M22.8037 20.1884L18.1558 24.8369L17.1514 25.8413C16.9142 26.0785 16.603 26.197 16.2921 26.197C15.9809 26.197 15.6701 26.0785 15.4325 25.8413L13.2731 23.681C12.7986 23.2064 12.7986 22.4378 13.2731 21.9629C13.747 21.4884 14.5166 21.4884 14.9911 21.9629L16.2921 23.2639L21.0857 18.4704C21.5602 17.9955 22.3298 17.9955 22.8037 18.4704C23.2782 18.9449 23.2782 19.7145 22.8037 20.1884Z" fill="#1C208F"/>
<path d="M22.8036 20.1884L18.1557 24.8369V21.4L21.0856 18.4704C21.5601 17.9955 22.3297 17.9955 22.8036 18.4704C23.2781 18.9449 23.2781 19.7145 22.8036 20.1884Z" fill="#1C208F"/>
</svg>
