<svg width="20" height="15" viewBox="0 0 20 15" fill="none" xmlns="http://www.w3.org/2000/svg">
<path fill-rule="evenodd" clip-rule="evenodd" d="M20 6.66667V11.9048C20 12.5362 19.7495 13.1419 19.3029 13.5886C18.8562 14.0352 18.2505 14.2857 17.619 14.2857H2.38095C1.74952 14.2857 1.14381 14.0352 0.697143 13.5886C0.250476 13.1419 0 12.5362 0 11.9048V6.66667H20ZM17.1429 9.04762C17.1429 8.78476 16.9295 8.57143 16.6667 8.57143H14.7619C14.499 8.57143 14.2857 8.78476 14.2857 9.04762V10.9524C14.2857 11.2152 14.499 11.4286 14.7619 11.4286H16.6667C16.9295 11.4286 17.1429 11.2152 17.1429 10.9524V9.04762ZM12.381 9.04762C12.381 8.78476 12.1676 8.57143 11.9048 8.57143H3.33333C3.07048 8.57143 2.85714 8.78476 2.85714 9.04762V10.9524C2.85714 11.2152 3.07048 11.4286 3.33333 11.4286H11.9048C12.1676 11.4286 12.381 11.2152 12.381 10.9524V9.04762ZM15.2381 9.52381V10.4762H16.1905V9.52381H15.2381ZM3.80952 9.52381V10.4762H11.4286V9.52381H3.80952ZM20 6.66667H0V3.80952H20V6.66667ZM0 2.85714V2.38095C0 1.74952 0.250476 1.14381 0.697143 0.697143C1.14381 0.250476 1.74952 0 2.38095 0H17.619C18.2505 0 18.8562 0.250476 19.3029 0.697143C19.7495 1.14381 20 1.74952 20 2.38095V2.85714H0Z" fill="white"/>
</svg>
