<svg width="47" height="47" viewBox="0 0 47 47" fill="none" xmlns="http://www.w3.org/2000/svg">
<path fill-rule="evenodd" clip-rule="evenodd" d="M31.4156 0.939941C23.3592 0.939941 16.7163 7.61495 16.7163 15.7102C16.7163 18.2518 17.4885 20.8589 18.7881 23.1112L17.8957 29.3844L24.1387 28.4877C26.3802 29.7936 28.8862 30.4805 31.4156 30.4805C39.4719 30.4805 46.1148 23.8055 46.1148 15.7102C46.1148 7.61495 39.4719 0.939941 31.4156 0.939941Z" fill="#36C8FF"/>
<path fill-rule="evenodd" clip-rule="evenodd" d="M46.1149 15.7102C46.1149 7.61495 39.4719 0.939941 31.4156 0.939941V30.4805C39.4719 30.4805 46.1149 23.8055 46.1149 15.7102Z" fill="#63D4FF"/>
<path d="M23.9075 35.8191L19.9046 38.5001C19.6389 38.3991 16.8144 38.5827 12.7337 34.4823C8.65066 30.3794 8.83573 27.5435 8.73514 27.2767L11.4033 23.2545L8.74683 17.9346H3.43384C1.9694 17.9346 0.777344 19.1136 0.777344 20.5851C0.777344 26.9932 4.03536 33.471 8.88771 38.3468C13.7401 43.2226 20.1868 46.4964 26.564 46.4964C28.0285 46.4964 29.2018 45.2986 29.2018 43.827V38.4884L23.9075 35.8191Z" fill="#FFDAAA"/>
<path d="M29.2018 43.8272V38.4885L23.9075 35.8192L19.9046 38.5003C19.6389 38.3993 16.8144 38.5829 12.7337 34.4824L8.8877 38.347C13.74 43.2228 20.1867 46.4965 26.564 46.4965C28.0284 46.4965 29.2018 45.2987 29.2018 43.8272Z" fill="#FFF1DE"/>
<path fill-rule="evenodd" clip-rule="evenodd" d="M28.7566 16.7094C28.7566 17.6771 27.9582 18.4616 26.9732 18.4616C25.9883 18.4616 25.1898 17.6771 25.1898 16.7094C25.1898 15.7418 25.9883 14.9573 26.9732 14.9573C27.9582 14.9573 28.7566 15.7418 28.7566 16.7094ZM33.5123 16.7094C33.5123 17.6771 32.7138 18.4616 31.7289 18.4616C30.744 18.4616 29.9455 17.6771 29.9455 16.7094C29.9455 15.7418 30.744 14.9573 31.7289 14.9573C32.7138 14.9573 33.5123 15.7418 33.5123 16.7094ZM36.4846 18.4616C37.4695 18.4616 38.268 17.6771 38.268 16.7094C38.268 15.7418 37.4695 14.9573 36.4846 14.9573C35.4997 14.9573 34.7012 15.7418 34.7012 16.7094C34.7012 17.6771 35.4997 18.4616 36.4846 18.4616Z" fill="#EFFAFF"/>
</svg>
