<svg width="83" height="13" viewBox="0 0 83 13" fill="none" xmlns="http://www.w3.org/2000/svg">
<path d="M13.1566 4.03684V0H0.805735L4.83418 4.03684H13.1566Z" fill="url(#paint0_linear_10_95)"/>
<path d="M4.18811 4.67561L0.15657 0.65V13H4.18811V4.67561Z" fill="url(#paint1_linear_10_95)"/>
<path d="M13.1566 4.92632H5.05933V13H13.1566V4.92632Z" fill="#00A3FF"/>
<path d="M19.7597 3.03938H15.9619V5.22011e-07H27.0974V3.03938H23.2996V12.9829H19.7597V3.03938Z" fill="white"/>
<path d="M28.2263 5.22011e-07H35.2094C36.6809 5.22011e-07 37.7895 0.367298 38.5623 1.09408C39.2142 1.74662 39.546 2.63751 39.546 3.75894C39.546 4.74361 39.2532 5.55245 38.6716 6.18545C38.3047 6.55275 37.8715 6.81845 37.3953 6.96694V7.04118C37.9378 7.17794 38.3789 7.46318 38.7107 7.8969C38.8863 8.1079 39.0151 8.34626 39.0854 8.6315C39.1674 8.90893 39.2064 9.11993 39.2142 9.2645C39.222 9.40126 39.2337 9.67869 39.2415 10.0733L39.2767 11.1674C39.2767 11.9215 39.4406 12.5272 39.7724 12.9805H36.1813C35.9315 12.6483 35.7754 12.1443 35.7207 11.48L35.6661 10.4055C35.6661 10.3781 35.6661 10.3312 35.6661 10.2492C35.6661 10.1671 35.6661 10.1124 35.6583 10.0851C35.6505 10.0577 35.6505 10.003 35.6505 9.92095C35.6505 9.83889 35.6505 9.78419 35.6427 9.74512C35.6348 9.70995 35.6231 9.65134 35.6153 9.58882C35.6075 9.5263 35.588 9.46769 35.5685 9.42471C35.549 9.37782 35.5334 9.33093 35.5138 9.26841C35.4943 9.20589 35.467 9.159 35.4397 9.11211C35.4124 9.06522 35.3772 9.01834 35.346 8.97535C35.3187 8.92846 35.2718 8.87376 35.225 8.82687C34.9127 8.51428 34.3897 8.36579 33.6559 8.36579H31.7823V13H28.2263V5.22011e-07ZM31.7823 5.79471H34.2609C34.8034 5.79471 35.2328 5.65795 35.5568 5.38834C35.8769 5.09528 36.033 4.69672 36.033 4.22002C36.033 3.75894 35.8769 3.41118 35.5724 3.16111C35.3226 2.96964 34.8815 2.86805 34.257 2.86805H31.7823V5.79471Z" fill="white"/>
<path d="M44.7147 5.02141H50.7743V7.74509H44.7147V9.98811H51.8487V12.9658H41.175V5.22011e-07H51.6846V2.96205H44.7147V5.02141Z" fill="white"/>
<path d="M53.4053 5.22011e-07H56.9632V12.9829H53.4053V5.22011e-07Z" fill="white"/>
<path d="M62.4779 5.35579H62.4233V12.9751H58.879V5.22011e-07H62.4506L66.9512 7.58411H67.0059V5.22011e-07H70.5619V12.9829H66.9902L62.4779 5.35579Z" fill="white"/>
<path d="M75.5057 3.03938H71.7079V5.22011e-07H82.8434V3.03938H79.0456V12.9829H75.5057V3.03938Z" fill="white"/>
<defs>
<linearGradient id="paint0_linear_10_95" x1="0.15657" y1="6.5" x2="79.4685" y2="6.5" gradientUnits="userSpaceOnUse">
<stop stop-color="#2D53EB"/>
<stop offset="1" stop-color="#00A3FF"/>
</linearGradient>
<linearGradient id="paint1_linear_10_95" x1="0.15657" y1="6.5" x2="79.4685" y2="6.5" gradientUnits="userSpaceOnUse">
<stop stop-color="#2D53EB"/>
<stop offset="1" stop-color="#00A3FF"/>
</linearGradient>
</defs>
</svg>
